<svg preserveAspectRatio="xMidYMid meet" data-bbox="202.272 216.2 1755.469 645.16" viewBox="202.272 216.2 1755.469 645.16" xmlns="http://www.w3.org/2000/svg" data-type="shape" role="presentation" aria-hidden="true">
    <g>
        <path d="M1257.57 788.74c-.77-.38-1.65-.64-2.64-.78-.99-.14-1.97-.2-2.91-.2h-6.91v10.91h6.23c.95 0 1.95-.03 3.02-.1 1.06-.07 2.02-.27 2.88-.61.86-.34 1.57-.87 2.13-1.59.56-.72.85-1.74.85-3.05 0-1.22-.25-2.19-.75-2.91-.5-.73-1.13-1.29-1.9-1.67z"></path>
        <path d="M697.06 807.68h11.72l-5.89-14.91-5.83 14.91z"></path>
        <path d="M896.64 807.68h11.72l-5.9-14.91-5.82 14.91z"></path>
        <path d="M1402.39 807.68h11.73l-5.9-14.91-5.83 14.91z"></path>
        <path d="M1804.07 741.38H280.31c-33.13 0-59.99 26.86-59.99 59.99s26.86 59.99 59.99 59.99h1523.76c33.13 0 59.99-26.86 59.99-59.99s-26.86-59.99-59.99-59.99zm-1495.19 66.1c-.63 1.45-1.49 2.71-2.57 3.8a12.202 12.202 0 0 1-3.8 2.57c-1.45.63-3 .95-4.68.95-1.67 0-3.23-.32-4.68-.95-1.45-.63-2.71-1.49-3.79-2.57a12.403 12.403 0 0 1-2.58-3.8c-.63-1.45-.95-3-.95-4.68 0-1.67.32-3.23.95-4.68.63-1.45 1.49-2.71 2.58-3.8 1.08-1.08 2.35-1.94 3.79-2.58 1.45-.63 3-.95 4.68-.95 1.67 0 3.23.32 4.68.95 1.45.63 2.71 1.49 3.8 2.58 1.08 1.08 1.94 2.35 2.57 3.8.63 1.45.95 3.01.95 4.68s-.31 3.23-.95 4.68zm54.83 19.31h-10.57v-47.98h10.57v47.98zm46.96 0h-30.16v-47.98h10.57v38.22h19.59v9.76zm43.17 0h-30.16v-47.98h10.57v38.22h19.59v9.76zm53.06-18.5c0 2.85-.43 5.47-1.29 7.86-.86 2.39-2.13 4.47-3.83 6.23s-3.81 3.14-6.34 4.13c-2.53.99-5.44 1.49-8.74 1.49-3.34 0-6.28-.5-8.81-1.49-2.53-.99-4.64-2.37-6.34-4.13s-2.97-3.84-3.83-6.23c-.86-2.39-1.29-5.01-1.29-7.86v-29.48H477v29.07c0 1.49.24 2.87.71 4.13a9.784 9.784 0 0 0 2 3.29c.86.93 1.89 1.65 3.08 2.17 1.2.52 2.5.78 3.9.78s2.69-.26 3.86-.78a9.187 9.187 0 0 0 3.05-2.17c.86-.93 1.52-2.02 2-3.29.47-1.26.71-2.64.71-4.13v-29.07h10.57v29.48zm70.75 18.5h-10.57v-36.8h-.14l-12.61 36.8h-8.06l-12.13-36.8H534v36.8h-10.57v-47.98h15.99l11.05 31.31h.14l11.11-31.31h15.93v47.98zm26.97 0h-10.57v-47.98h10.57v47.98zm61.88 0h-13.82l-20.94-34.16h-.14v34.16h-10.57v-47.98h14.37l20.4 33.34h.14v-33.34h10.57v47.98zm50.01 0-4.13-10.17h-18.64l-4 10.17h-11.66l20.74-47.98h8.74l20.87 47.98h-11.92zm50.83-38.63h-13.69v38.63h-10.57v-38.63h-13.69v-9.35h37.95v9.35zm46.35 38.63h-33.82v-47.98h32.6v9.76h-22.03v8.95h20.81v9.76h-20.81v9.76h23.24v9.75zm102.4 0-4.13-10.17h-18.64l-4 10.17h-11.66l20.74-47.98h8.74l20.87 47.98h-11.92zm68.99 0h-13.82l-20.94-34.16h-.14v34.16H939.6v-47.98h14.37l20.4 33.34h.14v-33.34h10.57v47.98zm38.89-20.46v20.47h-10.57v-20.47l-18.03-27.51h13.15l10.17 17.96 10.78-17.96H1042l-18.03 27.51zm77.33 20.46h-9.42l-10.57-33.21h-.14l-10.57 33.21h-9.08l-14.23-47.98h11.52l7.66 30.77h.14l10.03-30.77h9.83l9.96 31.58h.13l8.07-31.58h10.71l-14.04 47.98zm67.22 0h-10.57v-20.74h-20.53v20.74h-10.57v-47.98h10.57v17.89h20.53v-17.89h10.57v47.98zm50.76 0h-33.82v-47.98h32.6v9.76h-22.02v8.95h20.81v9.76h-20.81v9.76h23.24v9.75zm41.07 0-10.03-19.18h-5.22v19.18h-10.57v-47.98h18.57c2.44 0 4.75.24 6.95.71 2.19.47 4.11 1.26 5.76 2.37 1.65 1.11 2.96 2.6 3.93 4.47.97 1.87 1.46 4.21 1.46 7.01 0 3.39-.88 6.27-2.64 8.64-1.76 2.37-4.34 3.87-7.72 4.51l12.2 20.26h-12.69zm59.1 0h-33.82v-47.98h32.6v9.76h-22.03v8.95h20.81v9.76h-20.81v9.76h23.24v9.75zm102.39 0-4.13-10.17h-18.64l-4 10.17h-11.66l20.74-47.98h8.74l20.87 47.98h-11.92zm68.99 0h-13.82l-20.94-34.16h-.14v34.16h-10.57v-47.98h14.37l20.4 33.34h.14v-33.34h10.57v47.98zm38.9-20.46v20.47h-10.57v-20.47l-18.03-27.51h13.15l10.17 17.96 10.77-17.96h12.54l-18.03 27.51zm61.87-18.17h-13.69v38.63h-10.57v-38.63h-13.69v-9.35h37.95v9.35zm22.57 38.63h-10.57v-47.98h10.57v47.98zm70.61 0h-10.57v-36.8h-.13l-12.61 36.8h-8.07l-12.13-36.8h-.14v36.8h-10.57v-47.98h15.99l11.05 31.31h.14l11.11-31.31h15.93v47.98zm50.76 0h-33.82v-47.98h32.6v9.76h-22.02v8.95h20.81v9.76h-20.81v9.76h23.24v9.75zm65.19-19.31c-.63 1.45-1.49 2.71-2.58 3.8a12.202 12.202 0 0 1-3.8 2.57c-1.45.63-3.01.95-4.68.95s-3.23-.32-4.68-.95c-1.45-.63-2.71-1.49-3.8-2.57a12.403 12.403 0 0 1-2.58-3.8c-.63-1.45-.95-3-.95-4.68 0-1.67.32-3.23.95-4.68.63-1.45 1.49-2.71 2.58-3.8 1.08-1.08 2.35-1.94 3.8-2.58 1.45-.63 3-.95 4.68-.95 1.67 0 3.23.32 4.68.95 1.45.63 2.71 1.49 3.8 2.58 1.08 1.08 1.94 2.35 2.58 3.8.63 1.45.95 3.01.95 4.68s-.31 3.23-.95 4.68z"></path>
        <path d="M290.93 657.24H574.8l78.13-101.34H388.96c-18.59 0-33.05-17.07-28.73-38.09 10.9-53.28 22.84-106.67 33.8-160.46 4.26-20.87 27.04-38.09 45.64-38.09h371.7c45.73-49.72 59.59-75.04 122.38-101.34H383.9c-60.85 0-121.69 51.36-135.22 114.09-15.2 70.49-29.68 140.96-43.94 211.13-12.79 62.9 25.34 114.1 86.19 114.1z"></path>
        <path d="M896.72 344.6C813.8 448.79 732.77 553.15 651.64 657.24h174.09c74.36-95.83 151.77-191.75 226.48-287.3 25.01-31.98 59.15-50.15 98.03-50.67-16.9 78.93-33.8 157.87-50.7 236.63H982.92c-25.36 33.78-54.09 67.56-79.44 101.34h326.21c15.21-73.07 32.12-146.5 47.33-219.57s30.42-146.49 45.63-219.74H1141.8c-92.97 0-180.96 46.1-245.08 126.67z"></path>
        <path d="M1805.62 216.2s-40.56 191.48-60.85 287.14c-18.59-53.43-38.61-106.95-57.46-160.46-28.47-80.75-101.42-126.68-194.38-126.68h-92.96l-92.95 439.15h152.12l60.84-287.14 104.79 287.14h240.01l92.96-439.15h-152.12z"></path>
    </g>
</svg>